<?xml version="1.0" encoding="UTF-8" ?>
<!DOCTYPE svg PUBLIC "-//W3C//DTD SVG 1.1//EN" "http://www.w3.org/Graphics/SVG/1.1/DTD/svg11.dtd">
<svg width="0" height="0" class="hidden">
  <symbol fill="none" xmlns="http://www.w3.org/2000/svg" viewBox="0 0 15 25" id="geo">
    <path d="M7.5 0C3.35714 0 0 3.42233 0 7.64563C0 16.8689 7.5 25 7.5 25C7.5 25 15 16.7476 15 7.64563C15 3.42233 11.6429 0 7.5 0ZM7.5 11.7718C5.2619 11.7718 3.45238 9.92718 3.45238 7.64563C3.45238 5.36408 5.2619 3.51942 7.5 3.51942C9.7381 3.51942 11.5476 5.36408 11.5476 7.64563C11.5476 9.92718 9.7381 11.7718 7.5 11.7718Z" fill="white"></path>
  </symbol>
  <symbol fill="none" xmlns="http://www.w3.org/2000/svg" viewBox="0 0 30 29" id="insta">
    <path d="M22.3259 0C22.9 0.105002 23.4799 0.171319 24.0423 0.32606C26.3035 0.9616 27.9847 2.28242 29.0802 4.25535C29.7363 5.43801 30.0058 6.70356 29.9999 8.03544C29.994 12.1416 29.9999 16.2477 29.9999 20.3539C29.9999 22.15 29.4668 23.7913 28.2952 25.2116C26.614 27.2398 24.3879 28.2677 21.6639 28.2898C19.2738 28.3119 16.8838 28.2953 14.4878 28.2953C12.4961 28.2953 10.5044 28.2953 8.51263 28.2953C5.56604 28.2898 3.20525 27.1845 1.48299 24.9187C0.469549 23.5868 0.00676428 22.0726 0.00676428 20.4368C0.000906242 16.2256 -0.00495179 12.02 0.00676428 7.80885C0.0184803 4.38799 2.32069 1.42029 5.77107 0.381324C6.38617 0.198952 7.04227 0.127108 7.68079 0C12.5605 0 17.4461 0 22.3259 0ZM15.0033 25.7808C15.0033 25.7863 15.0033 25.7863 15.0033 25.7808C17.0712 25.7863 19.1391 25.7863 21.2129 25.7863C21.9861 25.7863 22.7535 25.7532 23.4916 25.51C25.8583 24.7363 27.3228 22.791 27.3345 20.3649C27.3462 16.2311 27.3404 12.0974 27.3404 7.96359C27.3404 6.96883 27.1295 6.01829 26.5788 5.16722C25.4306 3.37665 23.7201 2.51453 21.5175 2.509C17.1649 2.50347 12.8124 2.509 8.45991 2.509C7.59292 2.509 6.74351 2.63058 5.95853 2.99533C3.79106 4.00667 2.68389 5.67012 2.67217 7.94149C2.64874 12.0863 2.66631 16.2311 2.67217 20.3704C2.67217 21.3652 2.88892 22.3102 3.45129 23.1613C4.58775 24.8966 6.25729 25.7698 8.4189 25.7808C10.6098 25.7919 12.8066 25.7808 15.0033 25.7808Z" fill="white"></path>
    <path d="M22.7367 14.1643C22.6957 18.2151 19.1926 21.4813 14.9513 21.437C10.7042 21.3928 7.24799 18.0936 7.27728 14.109C7.30657 10.1023 10.8097 6.8141 15.0216 6.85279C19.339 6.89147 22.7133 10.1521 22.7367 14.1643ZM14.9748 18.9225C17.7808 18.9391 20.0654 16.8004 20.0654 14.1532C20.0713 11.5226 17.8159 9.39495 15.0041 9.37837C12.2449 9.36179 9.96613 11.495 9.9427 14.1256C9.91927 16.7451 12.1805 18.9059 14.9748 18.9225Z" fill="white"></path>
    <path d="M23.0295 4.73616C24.0898 4.70828 24.9744 5.52794 25.0095 6.57621C25.0388 7.55199 24.1543 8.41625 23.1116 8.43855C22.0278 8.46086 21.1316 7.65235 21.1023 6.62639C21.0788 5.61158 21.94 4.76404 23.0295 4.73616Z" fill="white"></path>
  </symbol>
  <symbol fill="none" xmlns="http://www.w3.org/2000/svg" viewBox="0 0 20 20" id="phone">
    <g clip-path="url(#clip0_132_3)">
      <path d="M0 3.92122C0.0354484 3.7581 0.0638072 3.60207 0.0992556 3.43895C0.212691 2.99924 0.418291 2.60207 0.737327 2.28292C1.31868 1.70136 1.89295 1.1198 2.48139 0.545335C2.97058 0.0701576 3.53775 -0.163885 4.20418 0.119803C4.43814 0.219094 4.66501 0.36803 4.84225 0.545335C5.72138 1.40349 6.58632 2.26874 7.44417 3.14108C7.82701 3.53115 8.07515 3.98505 7.99007 4.55243C7.92627 4.97796 7.67813 5.3042 7.38745 5.60207C6.89826 6.09143 6.40907 6.5808 5.91989 7.06307C5.66466 7.31838 5.66466 7.38221 5.80645 7.70846C6.36654 8.95668 7.2173 9.99214 8.13187 10.9851C9.04644 11.9709 10.0461 12.8574 11.1875 13.5737C11.5775 13.8148 11.9957 14.0134 12.3999 14.2333C12.5842 14.3326 12.726 14.2546 12.8607 14.1198C13.3711 13.6092 13.8674 13.0914 14.3921 12.595C14.5977 12.3964 14.8316 12.212 15.0868 12.0985C15.6115 11.8574 16.1149 11.9709 16.5686 12.2971C16.682 12.3822 16.7884 12.4815 16.8947 12.5808C17.7242 13.4035 18.5537 14.2191 19.369 15.056C19.5675 15.2616 19.7519 15.4957 19.8653 15.751C20.1205 16.2971 20.0213 16.8503 19.6242 17.2829C18.9862 17.9851 18.3127 18.6588 17.632 19.3184C17.2563 19.6801 16.7742 19.8645 16.2566 19.9496C16.1928 19.9567 16.129 19.978 16.0723 19.9921C15.7958 19.9921 15.5264 19.9921 15.2499 19.9921C15.2003 19.978 15.1577 19.9638 15.1081 19.9567C14.4913 19.829 13.8532 19.751 13.2577 19.5595C11.4782 18.9992 9.86884 18.0843 8.35874 17.0134C5.61503 15.0702 3.41723 12.6234 1.75115 9.70136C1.12017 8.60207 0.609713 7.44604 0.276498 6.21909C0.155973 5.77938 0.0921659 5.32548 0 4.87158C0 4.55952 0 4.24037 0 3.92122Z" fill="white"></path>
    </g>
    <defs>
      <clipPath id="clip0_132_3">
        <rect width="20" height="20" fill="white"></rect>
      </clipPath>
    </defs>
  </symbol>
</svg>